<?xml version="1.0" encoding="utf-8"?>
<!-- Generator: Adobe Illustrator 14.0.0, SVG Export Plug-In . SVG Version: 6.00 Build 43363)  -->
<!DOCTYPE svg PUBLIC "-//W3C//DTD SVG 1.1//EN" "http://www.w3.org/Graphics/SVG/1.1/DTD/svg11.dtd">
<svg version="1.1"
	 id="Calque_2" xmlns:inkscape="http://www.inkscape.org/namespaces/inkscape" xmlns:rdf="http://www.w3.org/1999/02/22-rdf-syntax-ns#" xmlns:dc="http://purl.org/dc/elements/1.1/" inkscape:version="0.48.3.1 r9886" xmlns:svg="http://www.w3.org/2000/svg" xmlns:cc="http://creativecommons.org/ns#" xmlns:sodipodi="http://sodipodi.sourceforge.net/DTD/sodipodi-0.dtd" sodipodi:docname="servo.svg"
	 xmlns="http://www.w3.org/2000/svg" xmlns:xlink="http://www.w3.org/1999/xlink" x="0px" y="0px" width="236.499px"
	 height="247.781px" viewBox="0 0 236.499 247.781" enable-background="new 0 0 236.499 247.781" xml:space="preserve">
<sodipodi:namedview  id="namedview3335" inkscape:window-maximized="0" inkscape:cy="123.8905" showgrid="false" inkscape:current-layer="Calque_2" inkscape:window-y="-1" bordercolor="#666666" inkscape:pageshadow="2" inkscape:zoom="0.95245396" inkscape:cx="118.2495" pagecolor="#ffffff" borderopacity="1" inkscape:pageopacity="0" inkscape:window-width="640" inkscape:window-height="480" inkscape:window-x="-1" objecttolerance="10" gridtolerance="10" guidetolerance="10">
	</sodipodi:namedview>
<radialGradient id="path3868_1_" cx="794.6584" cy="1277.4519" r="123.8436" gradientTransform="matrix(0.9548 0 0 0.9617 -652.7419 -1090.29)" gradientUnits="userSpaceOnUse">
	<stop  offset="0" style="stop-color:#36BAC0"/>
	<stop  offset="1" style="stop-color:#2D9094"/>
</radialGradient>
<path id="path3868" fill="url(#path3868_1_)" stroke="#02797E" stroke-width="9.392" stroke-linejoin="round" d="M232.028,124.092
	c0,63.283-50.936,114.589-113.766,114.589S4.496,187.376,4.496,124.092C4.496,60.81,55.432,9.507,118.262,9.507
	C181.093,9.507,232.028,60.807,232.028,124.092L232.028,124.092z"/>
<radialGradient id="path3254_1_" cx="3142.0452" cy="9988.082" r="125.9599" gradientTransform="matrix(0.3699 0 0 0.1167 -1040.6821 -976.3671)" gradientUnits="userSpaceOnUse">
	<stop  offset="0" style="stop-color:#000000"/>
	<stop  offset="1" style="stop-color:#000000;stop-opacity:0"/>
</radialGradient>
<path id="path3254" opacity="0.4091" fill="url(#path3254_1_)" enable-background="new    " d="M198.128,189.063
	c0.015,13.333-34.259,24.146-76.545,24.146c-42.293,0.007-76.583-10.8-76.59-24.134v-0.012
	c-0.016-13.334,34.261-24.148,76.547-24.148c42.285-0.006,76.584,10.807,76.588,24.14V189.063L198.128,189.063z"/>
<path id="path3243" fill="#FFFFFF" stroke="#000000" stroke-width="4" d="M115.122,34.415c-1.796,0.124-3.535,0.408-5.302,0.607
	h-0.125l-4.217,23.023c-6.874,1.562-13.346,4.226-19.16,7.827L67.394,52.257c-5.115,3.972-9.771,8.603-13.855,13.618L66.67,85.04
	c-3.988,6.103-6.986,13.062-8.676,20.367c0,0.037,0,0.112,0,0.121l-22.9,3.617c-0.42,3.418-0.599,6.949-0.599,10.482
	c0,2.894,0.071,5.74,0.356,8.554l22.901,4.098c1.628,7.954,4.716,15.386,9.042,21.938L53.17,172.905
	c3.898,4.844,8.399,9.252,13.259,13.135l19.285-13.258c6.744,4.297,14.261,7.312,22.417,8.792l3.616,22.784
	c2.569,0.235,5.209,0.242,7.834,0.242c3.712,0,7.262-0.139,10.85-0.604l4.34-23.267c7.738-1.918,15.008-5.264,21.334-9.759
	l18.562,13.5c4.809-4.102,9.212-8.809,13.017-13.856l-13.502-19.535c3.654-6.31,6.189-13.274,7.479-20.727l22.774-3.614
	c0.197-2.373,0.242-4.682,0.242-7.109c0-4.217-0.489-8.358-1.084-12.417l-23.142-4.219c-1.814-6.69-4.786-12.946-8.562-18.558
	l13.616-18.687c-4.215-5.166-9.031-9.931-14.338-13.981l-19.646,13.5c-5.648-3.337-11.725-5.901-18.317-7.353l-3.613-22.896
	c-3.296-0.383-6.615-0.606-10.009-0.606c-0.916,0-1.856-0.021-2.77,0c-0.445,0.021-0.886-0.021-1.325,0
	C115.362,34.427,115.239,34.415,115.122,34.415z M117.762,83.816c0.594-0.034,1.192,0,1.793,0c19.342,0,35.128,15.778,35.128,35.115
	c0,19.335-15.786,34.957-35.128,34.957c-19.336,0-34.956-15.621-34.956-34.957C84.599,100.199,99.262,84.754,117.762,83.816z"/>
<circle id="circle3333" fill="#FFFFFF" stroke="#000000" stroke-width="4" cx="120.348" cy="118.417" r="15.886"/>
<g>
	<path id="path3086-5" opacity="0.1681" stroke="#000000" enable-background="new    " d="M156.451,196.161
		c5.083-0.16,7.088,1.759,9.713,4.361c0.603,0.596,1.226,1.245,1.895,1.94l1.946-2.09c1.749-1.981,4.849-3.844,6.871-4.067
		c4.087-0.446,6.575-0.257,9.089,1.716c3.229,2.537,4.641,5.183,4.738,8.235c0.13,4.146-2.278,8.645-6.854,10.875
		c-2.056,1.008-5.628,1.112-8.258,0.284c-3.719-1.56-5.312-3.418-7.469-6.299c-3.539,4.521-6.724,6.861-11.041,6.655
		C141.364,217.025,142.65,196.524,156.451,196.161L156.451,196.161z M159.947,213.022c2.561-1.489,4.478-3.821,6.022-6.118
		c-1.564-2.617-4.658-5.953-7.287-6.609c-2.051-0.459-5.326,0.328-6.799,1.642c-1.964,1.749-2.786,5.342-1.607,7.771
		C151.899,213.063,156.693,214.537,159.947,213.022L159.947,213.022z M153.661,205.667l6.914,0.015v2.553l-6.932,0.012
		L153.661,205.667z M182.025,213.259c2.311-0.784,4.318-3.523,4.704-5.812c0.365-2.166-1.479-5.291-3.925-6.557
		c-2.667-1.386-6.07-1.021-8.865,1.531c-1.382,1.267-3.479,3.951-3.479,4.533c0,0.602,2.845,4.248,4.164,5.241
		C176.815,213.855,179.972,213.958,182.025,213.259z M177.902,208.248l-2.295-0.017l-0.003-2.567l2.301,0.006v-2.277l2.338-0.02
		l-0.016,2.309l2.285,0.008v2.456l-2.154-0.019v2.361h-2.457L177.902,208.248L177.902,208.248z"/>
	<path id="path3086" fill="#FFFFFF" stroke="#FFFFFF" stroke-width="0.5" stroke-opacity="0.7037" d="M156.064,194.232
		c5.084-0.162,7.084,1.758,9.714,4.363c0.604,0.596,1.229,1.242,1.896,1.94l1.944-2.09c1.75-1.984,4.897-3.557,6.898-3.911
		c3.356-0.593,6.261-0.196,9.062,1.56c3.479,2.176,4.512,5.183,4.604,8.23c0.133,4.146-2.146,8.646-6.723,10.88
		c-2.056,1.005-5.628,1.113-8.258,0.284c-3.722-1.562-5.312-3.418-7.471-6.299c-3.54,4.518-6.722,6.841-11.041,6.655
		C140.528,215.151,141.897,194.369,156.064,194.232L156.064,194.232z M159.56,211.094c2.56-1.494,4.477-3.821,6.022-6.118
		c-1.565-2.622-4.658-5.953-7.287-6.608c-2.052-0.464-5.327,0.326-6.8,1.638c-1.967,1.747-2.785,5.345-1.607,7.771
		C151.51,211.134,156.306,212.607,159.56,211.094z M153.275,203.738l6.913,0.011v2.551l-6.925,0.019L153.275,203.738z
		 M181.638,211.328c5.407-2.518,5.949-9.413,0.779-12.369c-2.669-1.387-6.072-1.021-8.866,1.53
		c-1.382,1.263-3.479,3.951-3.479,4.537c0,0.598,2.846,4.248,4.162,5.241C176.428,211.927,179.672,212.244,181.638,211.328z
		 M177.514,206.317l-2.294-0.021l-0.004-2.562l2.301,0.005v-2.281l2.336-0.016l-0.013,2.305l2.283,0.009v2.457l-2.152-0.02v2.363
		h-2.458L177.514,206.317L177.514,206.317z"/>
</g>
</svg>
