<?xml version="1.0" encoding="UTF-8" standalone="no"?>
<!-- Generator: Adobe Illustrator 14.0.0, SVG Export Plug-In . SVG Version: 6.00 Build 43363)  -->

<svg
   xmlns:dc="http://purl.org/dc/elements/1.1/"
   xmlns:cc="http://creativecommons.org/ns#"
   xmlns:rdf="http://www.w3.org/1999/02/22-rdf-syntax-ns#"
   xmlns:svg="http://www.w3.org/2000/svg"
   xmlns="http://www.w3.org/2000/svg"
   xmlns:sodipodi="http://sodipodi.sourceforge.net/DTD/sodipodi-0.dtd"
   xmlns:inkscape="http://www.inkscape.org/namespaces/inkscape"
   version="1.1"
   id="Calque_2"
   inkscape:version="0.48.2 r9819"
   sodipodi:docname="ARDUINO_ENCODER.svg"
   x="0px"
   y="0px"
   width="236.499px"
   height="247.781px"
   viewBox="0 0 236.499 247.781"
   enable-background="new 0 0 236.499 247.781"
   xml:space="preserve"><metadata
   id="metadata28"><rdf:RDF><cc:Work
       rdf:about=""><dc:format>image/svg+xml</dc:format><dc:type
         rdf:resource="http://purl.org/dc/dcmitype/StillImage" /></cc:Work></rdf:RDF></metadata><defs
   id="defs26" />
<sodipodi:namedview
   id="namedview3391"
   inkscape:window-maximized="1"
   inkscape:cy="123.8905"
   showgrid="false"
   inkscape:current-layer="Calque_2"
   inkscape:window-y="-8"
   bordercolor="#666666"
   inkscape:pageshadow="2"
   inkscape:zoom="0.95245396"
   inkscape:cx="118.2495"
   pagecolor="#ffffff"
   borderopacity="1"
   inkscape:pageopacity="0"
   inkscape:window-width="1280"
   inkscape:window-height="962"
   inkscape:window-x="-8"
   objecttolerance="10"
   gridtolerance="10"
   guidetolerance="10">
	</sodipodi:namedview>
<radialGradient
   id="path3868_1_"
   cx="727.2932"
   cy="-4255.2822"
   r="123.844"
   gradientTransform="matrix(0.9548 0 0 -0.9617 -588.4225 -3954.0701)"
   gradientUnits="userSpaceOnUse">
	<stop
   offset="0"
   style="stop-color:#36BAC0"
   id="stop5" />
	<stop
   offset="1"
   style="stop-color:#2D9094"
   id="stop7" />
</radialGradient>
<path
   id="path3868"
   fill="url(#path3868_1_)"
   stroke="#02797E"
   stroke-width="9.392"
   stroke-linejoin="round"
   d="M232.028,124.092  c0,63.283-50.937,114.589-113.767,114.589c-62.829,0-113.766-51.305-113.766-114.589C4.495,60.81,55.432,9.507,118.261,9.507  C181.093,9.507,232.028,60.807,232.028,124.092L232.028,124.092z" />
<g
   id="g10">
	<path
   id="path3086-5"
   opacity="0.1681"
   stroke="#000000"
   enable-background="new    "
   d="M156.451,196.161   c5.083-0.16,7.088,1.759,9.713,4.361c0.603,0.596,1.226,1.245,1.895,1.94l1.946-2.09c1.749-1.981,4.849-3.844,6.871-4.067   c4.087-0.446,6.575-0.257,9.089,1.716c3.229,2.537,4.641,5.183,4.738,8.235c0.13,4.146-2.278,8.645-6.854,10.875   c-2.056,1.008-5.628,1.112-8.258,0.284c-3.719-1.56-5.312-3.418-7.469-6.299c-3.539,4.521-6.724,6.861-11.041,6.655   C141.364,217.025,142.65,196.524,156.451,196.161L156.451,196.161z M159.947,213.022c2.561-1.489,4.478-3.821,6.022-6.118   c-1.564-2.617-4.658-5.953-7.287-6.609c-2.051-0.459-5.326,0.328-6.799,1.642c-1.964,1.749-2.786,5.342-1.607,7.771   C151.899,213.063,156.693,214.537,159.947,213.022L159.947,213.022z M153.661,205.667l6.914,0.015v2.553l-6.932,0.012   L153.661,205.667z M182.025,213.259c2.311-0.784,4.318-3.523,4.704-5.812c0.365-2.166-1.479-5.291-3.925-6.557   c-2.667-1.386-6.07-1.021-8.865,1.531c-1.382,1.267-3.479,3.951-3.479,4.533c0,0.602,2.845,4.248,4.164,5.241   C176.815,213.855,179.972,213.958,182.025,213.259z M177.902,208.248l-2.295-0.017l-0.003-2.567l2.301,0.006v-2.277l2.338-0.02   l-0.016,2.309l2.285,0.008v2.456l-2.154-0.019v2.361h-2.457L177.902,208.248L177.902,208.248z" />
	<path
   id="path3086"
   fill="#FFFFFF"
   stroke="#FFFFFF"
   stroke-width="0.5"
   stroke-opacity="0.7037"
   d="M156.064,194.232   c5.084-0.162,7.084,1.758,9.714,4.363c0.604,0.596,1.229,1.242,1.896,1.94l1.944-2.09c1.75-1.984,4.897-3.557,6.898-3.911   c3.356-0.593,6.261-0.196,9.062,1.56c3.479,2.176,4.512,5.183,4.604,8.23c0.133,4.146-2.146,8.646-6.723,10.88   c-2.056,1.005-5.628,1.113-8.258,0.284c-3.722-1.562-5.312-3.418-7.471-6.299c-3.54,4.518-6.722,6.841-11.041,6.655   C140.528,215.151,141.897,194.369,156.064,194.232L156.064,194.232z M159.56,211.094c2.56-1.494,4.477-3.821,6.022-6.118   c-1.565-2.622-4.658-5.953-7.287-6.608c-2.052-0.464-5.327,0.326-6.8,1.638c-1.967,1.747-2.785,5.345-1.607,7.771   C151.51,211.134,156.306,212.607,159.56,211.094z M153.275,203.738l6.913,0.011v2.551l-6.925,0.019L153.275,203.738z    M181.638,211.328c5.407-2.518,5.949-9.413,0.779-12.369c-2.669-1.387-6.072-1.021-8.866,1.53   c-1.382,1.263-3.479,3.951-3.479,4.537c0,0.598,2.846,4.248,4.162,5.241C176.428,211.927,179.672,212.244,181.638,211.328z    M177.514,206.317l-2.294-0.021l-0.004-2.562l2.301,0.005v-2.281l2.336-0.016l-0.013,2.305l2.283,0.009v2.457l-2.152-0.02v2.363   h-2.458L177.514,206.317L177.514,206.317z" />
</g>



<path
   sodipodi:type="arc"
   style="fill:#ffffff;fill-opacity:1;stroke:#000000;stroke-width:2;stroke-linejoin:miter;stroke-miterlimit:4;stroke-opacity:1;stroke-dasharray:none"
   id="path3806"
   sodipodi:cx="124.94042"
   sodipodi:cy="121.79066"
   sodipodi:rx="60.895332"
   sodipodi:ry="59.845413"
   d="m 185.83575,121.79066 a 60.895332,59.845413 0 1 1 -121.79066,0 60.895332,59.845413 0 1 1 121.79066,0 z"
   transform="matrix(1.1442345,0,0,1.137993,-22.745355,-17.856182)" /><path
   style="fill:none;stroke:#000000;stroke-width:4.46987009;stroke-linecap:butt;stroke-linejoin:miter;stroke-miterlimit:4;stroke-opacity:1;stroke-dasharray:none"
   d="m 74.026715,117.05862 0,-33.146489 32.934425,0 0.74851,32.710359 30.6889,0 -0.74851,-33.146499 22.45528,0"
   id="path3005"
   inkscape:connector-curvature="0"
   sodipodi:nodetypes="ccccccc" /><path
   style="fill:none;stroke:#000000;stroke-width:4.47698736;stroke-linecap:butt;stroke-linejoin:miter;stroke-miterlimit:4;stroke-opacity:1;stroke-dasharray:none"
   d="m 67.983263,157.82901 20.948654,0 0,-31.05027 32.789193,0 0,32.02059 32.7892,0 0,-32.02059 20.03784,0"
   id="path3804"
   inkscape:connector-curvature="0"
   sodipodi:nodetypes="cccccccc" /></svg>