<?xml version="1.0" encoding="utf-8"?>
<!-- Generator: Adobe Illustrator 14.0.0, SVG Export Plug-In . SVG Version: 6.00 Build 43363)  -->
<!DOCTYPE svg PUBLIC "-//W3C//DTD SVG 1.1//EN" "http://www.w3.org/Graphics/SVG/1.1/DTD/svg11.dtd">
<svg version="1.1"
	 id="Calque_2" xmlns:inkscape="http://www.inkscape.org/namespaces/inkscape" xmlns:rdf="http://www.w3.org/1999/02/22-rdf-syntax-ns#" xmlns:dc="http://purl.org/dc/elements/1.1/" inkscape:version="0.48.3.1 r9886" xmlns:svg="http://www.w3.org/2000/svg" xmlns:cc="http://creativecommons.org/ns#" xmlns:sodipodi="http://sodipodi.sourceforge.net/DTD/sodipodi-0.dtd" sodipodi:docname="ARDUINO_ANALOG_WRITE.svg"
	 xmlns="http://www.w3.org/2000/svg" xmlns:xlink="http://www.w3.org/1999/xlink" x="0px" y="0px" width="236.499px"
	 height="247.781px" viewBox="0 0 236.499 247.781" enable-background="new 0 0 236.499 247.781" xml:space="preserve">
<sodipodi:namedview  id="namedview3020" inkscape:window-maximized="0" inkscape:cy="123.8905" showgrid="false" inkscape:current-layer="Calque_2" inkscape:window-y="-1" bordercolor="#666666" inkscape:pageshadow="2" inkscape:zoom="0.95245396" inkscape:cx="118.2495" pagecolor="#ffffff" borderopacity="1" inkscape:pageopacity="0" inkscape:window-width="640" inkscape:window-height="480" inkscape:window-x="-1" objecttolerance="10" gridtolerance="10" guidetolerance="10">
	</sodipodi:namedview>
<radialGradient id="path3868_1_" cx="684.1331" cy="4135.2393" r="123.8445" gradientTransform="matrix(0.9548 0 0 0.9617 -547.2121 -3838.6248)" gradientUnits="userSpaceOnUse">
	<stop  offset="0" style="stop-color:#36BAC0"/>
	<stop  offset="1" style="stop-color:#2D9094"/>
</radialGradient>
<path id="path3868" fill="url(#path3868_1_)" stroke="#02797E" stroke-width="9.392" stroke-linejoin="round" d="M232.028,124.092
	c0,63.283-50.937,114.586-113.767,114.586c-62.829,0-113.766-51.302-113.766-114.586c0-63.283,50.937-114.585,113.766-114.585
	C181.093,9.507,232.028,60.807,232.028,124.092L232.028,124.092z"/>
<path id="path3086-5" opacity="0.1681" stroke="#000000" enable-background="new    " d="M156.526,200.72
	c3.86-0.122,5.383,1.335,7.376,3.312c0.457,0.452,0.931,0.945,1.438,1.476l1.478-1.587c1.328-1.507,3.682-2.919,5.218-3.091
	c3.104-0.339,4.992-0.192,6.901,1.303c2.451,1.927,3.523,3.936,3.598,6.256c0.099,3.146-1.729,6.562-5.204,8.258
	c-1.561,0.763-4.273,0.845-6.271,0.216c-2.823-1.185-4.032-2.596-5.671-4.783c-2.688,3.431-5.104,5.21-8.384,5.054
	C145.07,216.563,146.046,200.996,156.526,200.72L156.526,200.72z M159.18,213.523c1.942-1.131,3.397-2.901,4.573-4.646
	c-1.188-1.987-3.537-4.521-5.533-5.019c-1.558-0.349-4.045,0.249-5.163,1.244c-1.491,1.328-2.115,4.057-1.221,5.9
	C153.069,213.554,156.709,214.674,159.18,213.523L159.18,213.523z M154.407,207.938l5.25,0.009v1.938l-5.261,0.009L154.407,207.938z
	 M175.945,213.703c1.752-0.598,3.279-2.678,3.572-4.413c0.277-1.645-1.126-4.018-2.98-4.979c-2.025-1.05-4.609-0.774-6.731,1.165
	c-1.05,0.96-2.642,3-2.642,3.442c0,0.454,2.16,3.226,3.162,3.979C171.989,214.156,174.386,214.234,175.945,213.703z
	 M172.814,209.898l-1.742-0.013l-0.003-1.949l1.747,0.004v-1.731l1.773-0.013l-0.01,1.751l1.735,0.006v1.865l-1.636-0.012v1.793
	h-1.866L172.814,209.898L172.814,209.898z"/>
<path id="path3086" fill="#FFFFFF" stroke="#FFFFFF" stroke-width="0.5" stroke-opacity="0.7037" d="M156.232,199.256
	c3.86-0.123,5.379,1.335,7.376,3.313c0.456,0.452,0.931,0.945,1.438,1.476l1.477-1.587c1.329-1.507,3.721-2.701,5.24-2.97
	c2.549-0.45,4.754-0.149,6.88,1.182c2.645,1.652,3.426,3.936,3.498,6.252c0.101,3.148-1.63,6.562-5.104,8.262
	c-1.561,0.763-4.273,0.845-6.271,0.216c-2.824-1.188-4.032-2.596-5.671-4.783c-2.688,3.431-5.104,5.194-8.384,5.054
	C144.435,215.14,145.474,199.359,156.232,199.256L156.232,199.256z M158.886,212.058c1.941-1.135,3.397-2.901,4.573-4.646
	c-1.188-1.991-3.537-4.521-5.533-5.019c-1.558-0.352-4.045,0.248-5.163,1.244c-1.491,1.326-2.115,4.056-1.221,5.9
	C152.774,212.09,156.415,213.209,158.886,212.058z M154.114,206.473l5.25,0.009v1.937l-5.259,0.012L154.114,206.473z
	 M175.651,212.237c4.106-1.912,4.518-7.147,0.592-9.393c-2.026-1.053-4.61-0.774-6.732,1.162c-1.049,0.959-2.642,3-2.642,3.445
	c0,0.454,2.158,3.226,3.16,3.979C171.695,212.691,174.158,212.932,175.651,212.237z M172.52,208.432l-1.742-0.015l-0.003-1.946
	l1.747,0.004v-1.732l1.773-0.012l-0.01,1.75l1.734,0.007v1.865l-1.635-0.015v1.795h-1.866L172.52,208.432L172.52,208.432z"/>
<g id="layer1_2_">
	
		<path id="path8583_1_" fill="none" stroke="#000000" stroke-width="15" stroke-linecap="round" stroke-linejoin="round" stroke-miterlimit="10" d="
		M32.6,124.832c0,0,8.833-56.443,18.065-56.579C59.895,68.12,69.525,124.3,69.525,124.3"/>
	
		<path id="path8585_1_" fill="none" stroke="#000000" stroke-width="15" stroke-linecap="round" stroke-linejoin="round" stroke-miterlimit="10" d="
		M69.494,124.607c0.002,0.014,7.83,56.432,18.062,56.578c8.232,0.119,18.859-56.032,18.862-56.046"/>
	
		<path id="path8587_1_" fill="none" stroke="#000000" stroke-width="15" stroke-linecap="round" stroke-linejoin="round" stroke-miterlimit="10" d="
		M106.389,124.832c0-0.008,8.331-56.438,18.064-56.579c8.729-0.125,18.857,56.041,18.858,56.047"/>
	
		<path id="path8589_1_" fill="none" stroke="#000000" stroke-width="15" stroke-linecap="round" stroke-linejoin="round" stroke-miterlimit="10" d="
		M143.47,124.607c0,0,8.646,56.445,17.877,56.578c9.231,0.133,19.05-56.046,19.05-56.046"/>
	
		<path id="path8591_1_" fill="none" stroke="#000000" stroke-width="15" stroke-linecap="round" stroke-linejoin="round" stroke-miterlimit="10" d="
		M180.365,124.832c0.001-0.008,8.328-56.438,18.062-56.579c8.731-0.125,18.86,56.041,18.862,56.047"/>
</g>
<g id="layer1_1_">
	
		<path id="path8583" fill="none" stroke="#FFFFFF" stroke-width="15" stroke-linecap="round" stroke-linejoin="round" stroke-miterlimit="10" d="
		M28.059,120.037c0,0,8.833-56.446,18.065-56.579c9.229-0.132,18.858,56.047,18.858,56.047"/>
	
		<path id="path8585" fill="none" stroke="#FFFFFF" stroke-width="15" stroke-linecap="round" stroke-linejoin="round" stroke-miterlimit="10" d="
		M64.953,119.812c0.002,0.014,7.829,56.432,18.062,56.578c8.232,0.116,18.859-56.032,18.862-56.046"/>
	
		<path id="path8587" fill="none" stroke="#FFFFFF" stroke-width="15" stroke-linecap="round" stroke-linejoin="round" stroke-miterlimit="10" d="
		M101.848,120.037c0.001-0.007,8.331-56.438,18.064-56.579c8.729-0.125,18.857,56.041,18.858,56.047"/>
	
		<path id="path8589" fill="none" stroke="#FFFFFF" stroke-width="15" stroke-linecap="round" stroke-linejoin="round" stroke-miterlimit="10" d="
		M138.929,119.812c0,0,8.646,56.442,17.877,56.578c9.231,0.134,19.05-56.046,19.05-56.046"/>
	
		<path id="path8591" fill="none" stroke="#FFFFFF" stroke-width="15" stroke-linecap="round" stroke-linejoin="round" stroke-miterlimit="10" d="
		M175.823,120.037c0.001-0.007,8.328-56.438,18.062-56.579c8.732-0.125,18.861,56.041,18.862,56.047"/>
</g>
</svg>
