<?xml version="1.0" encoding="utf-8"?>
<!-- Generator: Adobe Illustrator 14.0.0, SVG Export Plug-In . SVG Version: 6.00 Build 43363)  -->
<!DOCTYPE svg PUBLIC "-//W3C//DTD SVG 1.1//EN" "http://www.w3.org/Graphics/SVG/1.1/DTD/svg11.dtd">
<svg version="1.1"
	 id="Calque_2" xmlns:inkscape="http://www.inkscape.org/namespaces/inkscape" xmlns:rdf="http://www.w3.org/1999/02/22-rdf-syntax-ns#" xmlns:dc="http://purl.org/dc/elements/1.1/" inkscape:version="0.48.3.1 r9886" xmlns:svg="http://www.w3.org/2000/svg" xmlns:cc="http://creativecommons.org/ns#" xmlns:sodipodi="http://sodipodi.sourceforge.net/DTD/sodipodi-0.dtd" sodipodi:docname="digital.svg"
	 xmlns="http://www.w3.org/2000/svg" xmlns:xlink="http://www.w3.org/1999/xlink" x="0px" y="0px" width="236.499px"
	 height="247.781px" viewBox="0 0 236.499 247.781" enable-background="new 0 0 236.499 247.781" xml:space="preserve">
<sodipodi:namedview  id="namedview3284" inkscape:window-maximized="0" inkscape:cy="123.8905" showgrid="false" inkscape:current-layer="Calque_2" inkscape:window-y="-1" bordercolor="#666666" inkscape:pageshadow="2" inkscape:zoom="0.95245396" inkscape:cx="118.2495" pagecolor="#ffffff" borderopacity="1" inkscape:pageopacity="0" inkscape:window-width="640" inkscape:window-height="480" inkscape:window-x="-1" objecttolerance="10" gridtolerance="10" guidetolerance="10">
	</sodipodi:namedview>
<radialGradient id="path3868_1_" cx="698.5198" cy="-3894.2336" r="123.8445" gradientTransform="matrix(0.9548 0 0 -0.9617 -560.9489 -3606.8491)" gradientUnits="userSpaceOnUse">
	<stop  offset="0" style="stop-color:#36BAC0"/>
	<stop  offset="1" style="stop-color:#2D9094"/>
</radialGradient>
<path id="path3868" fill="url(#path3868_1_)" stroke="#02797E" stroke-width="9.392" stroke-linejoin="round" d="M232.028,124.092
	c0,63.283-50.937,114.587-113.767,114.587c-62.829,0-113.766-51.303-113.766-114.587c0-63.282,50.937-114.585,113.766-114.585
	C181.093,9.507,232.028,60.807,232.028,124.092L232.028,124.092z"/>
<polyline id="polyline3280" fill="none" stroke="#000000" stroke-width="17" stroke-linecap="square" points="55.858,175.39 
	55.485,53.987 101.083,53.987 100.749,175.39 121.749,175.39 121.749,53.366 145.082,53.366 145.082,175.08 164.082,174.927 
	164.226,53.057 180.416,53.057 181.082,175.39 "/>
<polyline id="polyline3282" fill="none" stroke="#FFFFFF" stroke-width="13" stroke-linecap="square" points="55.858,174.724 
	55.485,53.32 101.083,53.32 100.749,174.724 121.749,174.724 121.749,52.7 145.082,52.7 145.082,174.414 164.082,174.26 
	164.226,52.39 180.416,52.39 181.082,174.724 "/>
<g>
	<path id="path3086-5" opacity="0.1681" stroke="#000000" enable-background="new    " d="M156.451,196.16
		c5.083-0.16,7.088,1.759,9.713,4.361c0.603,0.596,1.226,1.245,1.895,1.942l1.946-2.09c1.749-1.983,4.849-3.844,6.871-4.069
		c4.087-0.446,6.575-0.255,9.089,1.716c3.229,2.537,4.641,5.183,4.738,8.237c0.13,4.144-2.278,8.643-6.854,10.875
		c-2.056,1.006-5.628,1.112-8.258,0.284c-3.719-1.56-5.312-3.418-7.469-6.299c-3.539,4.519-6.722,6.861-11.041,6.655
		C141.364,217.024,142.65,196.523,156.451,196.16L156.451,196.16z M159.947,213.021c2.559-1.489,4.476-3.821,6.022-6.118
		c-1.564-2.617-4.658-5.953-7.287-6.609c-2.051-0.459-5.326,0.328-6.799,1.64c-1.964,1.749-2.786,5.342-1.607,7.771
		C151.899,213.062,156.693,214.536,159.947,213.021L159.947,213.021z M153.661,205.666l6.914,0.013v2.553l-6.93,0.012
		L153.661,205.666z M182.025,213.258c2.309-0.786,4.318-3.525,4.704-5.812c0.365-2.166-1.481-5.291-3.925-6.557
		c-2.667-1.384-6.07-1.021-8.865,1.533c-1.382,1.265-3.479,3.951-3.479,4.533c0,0.6,2.845,4.248,4.164,5.241
		C176.815,213.854,179.972,213.957,182.025,213.258z M177.902,208.247l-2.295-0.017l-0.003-2.567l2.301,0.006v-2.279l2.336-0.018
		l-0.014,2.307l2.285,0.008v2.456l-2.154-0.017v2.361h-2.457L177.902,208.247L177.902,208.247z"/>
	<path id="path3086" fill="#FFFFFF" stroke="#FFFFFF" stroke-width="0.5" stroke-opacity="0.7037" d="M156.064,194.231
		c5.084-0.162,7.084,1.758,9.714,4.363c0.602,0.596,1.227,1.244,1.896,1.942l1.944-2.09c1.75-1.984,4.899-3.557,6.9-3.911
		c3.356-0.593,6.261-0.196,9.062,1.558c3.481,2.176,4.512,5.183,4.605,8.232c0.133,4.146-2.146,8.644-6.723,10.88
		c-2.055,1.005-5.628,1.113-8.258,0.284c-3.72-1.562-5.311-3.418-7.469-6.299c-3.54,4.518-6.722,6.841-11.041,6.655
		C140.528,215.15,141.897,194.368,156.064,194.231L156.064,194.231z M159.56,211.092c2.558-1.493,4.475-3.82,6.022-6.117
		c-1.565-2.622-4.658-5.953-7.287-6.608c-2.052-0.464-5.327,0.326-6.8,1.638c-1.965,1.747-2.785,5.343-1.607,7.771
		C151.51,211.133,156.306,212.606,159.56,211.092z M153.275,203.737l6.913,0.011v2.551l-6.925,0.017L153.275,203.737z
		 M181.638,211.327c5.407-2.518,5.949-9.413,0.779-12.369c-2.669-1.387-6.072-1.021-8.866,1.53
		c-1.382,1.263-3.479,3.951-3.479,4.537c0,0.598,2.844,4.248,4.162,5.241C176.428,211.926,179.672,212.243,181.638,211.327z
		 M177.514,206.316l-2.294-0.02l-0.004-2.562l2.301,0.005v-2.281l2.336-0.016l-0.013,2.305l2.283,0.009v2.457l-2.152-0.02v2.363
		h-2.458L177.514,206.316L177.514,206.316z"/>
</g>
</svg>
