<?xml version="1.0" encoding="utf-8"?>
<!-- Generator: Adobe Illustrator 14.0.0, SVG Export Plug-In . SVG Version: 6.00 Build 43363)  -->
<!DOCTYPE svg PUBLIC "-//W3C//DTD SVG 1.1//EN" "http://www.w3.org/Graphics/SVG/1.1/DTD/svg11.dtd">
<svg version="1.1"
	 id="Calque_2" xmlns:inkscape="http://www.inkscape.org/namespaces/inkscape" xmlns:rdf="http://www.w3.org/1999/02/22-rdf-syntax-ns#" xmlns:dc="http://purl.org/dc/elements/1.1/" inkscape:version="0.48.3.1 r9886" xmlns:svg="http://www.w3.org/2000/svg" xmlns:cc="http://creativecommons.org/ns#" xmlns:sodipodi="http://sodipodi.sourceforge.net/DTD/sodipodi-0.dtd" sodipodi:docname="stepper.svg"
	 xmlns="http://www.w3.org/2000/svg" xmlns:xlink="http://www.w3.org/1999/xlink" x="0px" y="0px" width="236.499px"
	 height="247.781px" viewBox="0 0 236.499 247.781" enable-background="new 0 0 236.499 247.781" xml:space="preserve">
<sodipodi:namedview  id="namedview3391" inkscape:window-maximized="0" inkscape:cy="123.8905" showgrid="false" inkscape:current-layer="Calque_2" inkscape:window-y="-1" bordercolor="#666666" inkscape:pageshadow="2" inkscape:zoom="0.95245396" inkscape:cx="118.2495" pagecolor="#ffffff" borderopacity="1" inkscape:pageopacity="0" inkscape:window-width="640" inkscape:window-height="480" inkscape:window-x="-1" objecttolerance="10" gridtolerance="10" guidetolerance="10">
	</sodipodi:namedview>
<radialGradient id="path3868_1_" cx="727.2932" cy="-4255.2822" r="123.844" gradientTransform="matrix(0.9548 0 0 -0.9617 -588.4225 -3954.0701)" gradientUnits="userSpaceOnUse">
	<stop  offset="0" style="stop-color:#36BAC0"/>
	<stop  offset="1" style="stop-color:#2D9094"/>
</radialGradient>
<path id="path3868" fill="url(#path3868_1_)" stroke="#02797E" stroke-width="9.392" stroke-linejoin="round" d="M232.028,124.092
	c0,63.283-50.937,114.589-113.767,114.589c-62.829,0-113.766-51.305-113.766-114.589C4.495,60.81,55.432,9.507,118.261,9.507
	C181.093,9.507,232.028,60.807,232.028,124.092L232.028,124.092z"/>
<g>
	<path id="path3086-5" opacity="0.1681" stroke="#000000" enable-background="new    " d="M156.451,196.161
		c5.083-0.16,7.088,1.759,9.713,4.361c0.603,0.596,1.226,1.245,1.895,1.94l1.946-2.09c1.749-1.981,4.849-3.844,6.871-4.067
		c4.087-0.446,6.575-0.257,9.089,1.716c3.229,2.537,4.641,5.183,4.738,8.235c0.13,4.146-2.278,8.645-6.854,10.875
		c-2.056,1.008-5.628,1.112-8.258,0.284c-3.719-1.56-5.312-3.418-7.469-6.299c-3.539,4.521-6.724,6.861-11.041,6.655
		C141.364,217.025,142.65,196.524,156.451,196.161L156.451,196.161z M159.947,213.022c2.561-1.489,4.478-3.821,6.022-6.118
		c-1.564-2.617-4.658-5.953-7.287-6.609c-2.051-0.459-5.326,0.328-6.799,1.642c-1.964,1.749-2.786,5.342-1.607,7.771
		C151.899,213.063,156.693,214.537,159.947,213.022L159.947,213.022z M153.661,205.667l6.914,0.015v2.553l-6.932,0.012
		L153.661,205.667z M182.025,213.259c2.311-0.784,4.318-3.523,4.704-5.812c0.365-2.166-1.479-5.291-3.925-6.557
		c-2.667-1.386-6.07-1.021-8.865,1.531c-1.382,1.267-3.479,3.951-3.479,4.533c0,0.602,2.845,4.248,4.164,5.241
		C176.815,213.855,179.972,213.958,182.025,213.259z M177.902,208.248l-2.295-0.017l-0.003-2.567l2.301,0.006v-2.277l2.338-0.02
		l-0.016,2.309l2.285,0.008v2.456l-2.154-0.019v2.361h-2.457L177.902,208.248L177.902,208.248z"/>
	<path id="path3086" fill="#FFFFFF" stroke="#FFFFFF" stroke-width="0.5" stroke-opacity="0.7037" d="M156.064,194.232
		c5.084-0.162,7.084,1.758,9.714,4.363c0.604,0.596,1.229,1.242,1.896,1.94l1.944-2.09c1.75-1.984,4.897-3.557,6.898-3.911
		c3.356-0.593,6.261-0.196,9.062,1.56c3.479,2.176,4.512,5.183,4.604,8.23c0.133,4.146-2.146,8.646-6.723,10.88
		c-2.056,1.005-5.628,1.113-8.258,0.284c-3.722-1.562-5.312-3.418-7.471-6.299c-3.54,4.518-6.722,6.841-11.041,6.655
		C140.528,215.151,141.897,194.369,156.064,194.232L156.064,194.232z M159.56,211.094c2.56-1.494,4.477-3.821,6.022-6.118
		c-1.565-2.622-4.658-5.953-7.287-6.608c-2.052-0.464-5.327,0.326-6.8,1.638c-1.967,1.747-2.785,5.345-1.607,7.771
		C151.51,211.134,156.306,212.607,159.56,211.094z M153.275,203.738l6.913,0.011v2.551l-6.925,0.019L153.275,203.738z
		 M181.638,211.328c5.407-2.518,5.949-9.413,0.779-12.369c-2.669-1.387-6.072-1.021-8.866,1.53
		c-1.382,1.263-3.479,3.951-3.479,4.537c0,0.598,2.846,4.248,4.162,5.241C176.428,211.927,179.672,212.244,181.638,211.328z
		 M177.514,206.317l-2.294-0.021l-0.004-2.562l2.301,0.005v-2.281l2.336-0.016l-0.013,2.305l2.283,0.009v2.457l-2.152-0.02v2.363
		h-2.458L177.514,206.317L177.514,206.317z"/>
</g>
<g id="Calque_3">
	<g id="layer1_4_" transform="translate(195.5,-49.005039)" opacity="0.13">
		<g id="g3226_1_" transform="matrix(0.6156615,0.7880108,-0.7880108,0.6156615,350.56125,14.58796)">
			<path id="path3204_1_" fill="#E1E0E1" stroke="#FFFFFF" stroke-width="5" d="M-101.9,378.371
				c1.967,1.444,12.033,9.488,14.345,11.459c13.317,11.365,21.559,20.808,23.761,27.22c0.35,1.027,0.589,2.077,0.602,2.702
				c0.029,1.218-0.167,1.427-1.783,1.829c-0.85,0.212-1.511,0.215-3.039,0.036c-1.076-0.136-2.672-0.448-3.545-0.702
				c-6.2-1.809-14.908-6.561-25.166-13.735c-8.446-5.908-21.111-16.008-27.839-22.199c-11.517-10.608-17.945-19.182-18.074-24.119
				c-0.037-1.356,0.37-1.856,1.75-2.152c2.922-0.633,8.572,0.909,14.72,4.003C-119.009,366.332-112.997,370.209-101.9,378.371
				L-101.9,378.371z"/>
			<path id="path3380" fill="#E1E0E1" stroke="#FFFFFF" stroke-width="4" stroke-linecap="round" d="M-108.605,397.374
				c-4.113-3.214-6.896-6.517-6.221-7.38l21.165-27.09c0.677-0.869,4.558,1.038,8.669,4.25l0,0c4.11,3.213,6.894,6.518,6.22,7.383
				l-21.164,27.092C-100.613,402.488-104.493,400.586-108.605,397.374L-108.605,397.374z"/>
			<path id="path3192_1_" fill="#FFFFFF" stroke="#FFFFFF" stroke-width="5" stroke-linecap="square" stroke-linejoin="round" d="
				M-62.647,421.565c0.297-0.099-17.771,23.067-40.144,51.484c-40.116,50.952-40.695,51.663-41.772,51.838
				c-3.685,0.583-12.059-3.032-22.299-9.632c-6.963-4.488-11.416-7.725-21.402-15.564c-15.823-12.42-24.813-20.766-30.446-28.266
				c-2.276-3.03-4.037-6.903-3.752-8.246c0.142-0.655,11.982-15.847,40.704-52.216l40.503-51.29l0.35,1.341
				c1.992,7.693,15.527,21.534,37.375,38.223c17.573,13.421,29.415,20.361,37.411,21.928
				C-64.507,421.481-62.94,421.66-62.647,421.565L-62.647,421.565z"/>
		</g>
	</g>
</g>
<g id="layer1_3_" transform="translate(195.5,-49.005039)">
	<g id="g3226" transform="matrix(0.6156615,0.7880108,-0.7880108,0.6156615,350.56125,14.58796)">
		<path id="path3204" fill="#E1E0E1" stroke="#000000" stroke-width="5" d="M-104.658,377.75c1.97,1.444,12.031,9.488,14.346,11.459
			c13.318,11.363,21.557,20.804,23.759,27.22c0.353,1.028,0.591,2.079,0.603,2.702c0.032,1.221-0.169,1.431-1.78,1.83
			c-0.85,0.216-1.51,0.218-3.038,0.041c-1.078-0.133-2.674-0.447-3.547-0.702c-6.201-1.809-14.908-6.56-25.164-13.736
			c-8.446-5.908-21.113-16.007-27.839-22.199c-11.517-10.604-17.947-19.182-18.076-24.118c-0.034-1.357,0.371-1.854,1.75-2.153
			c2.922-0.632,8.574,0.909,14.721,4.005C-121.764,365.708-115.753,369.587-104.658,377.75L-104.658,377.75z"/>
		<path id="path3308" fill="#E1E0E1" stroke="#000000" stroke-width="4" stroke-linecap="round" d="M-88.303,367.786
			c4.114,3.214,6.896,6.518,6.222,7.382l-21.165,27.089c-0.678,0.867-4.558-1.036-8.668-4.249l0,0
			c-4.112-3.212-6.898-6.516-6.22-7.382l21.164-27.09C-96.295,362.672-92.415,364.573-88.303,367.786L-88.303,367.786z"/>
		<path id="path3192" fill="#FFFFFF" stroke="#000000" stroke-width="5" d="M-67.883,422.943c0.296-0.1-17.771,23.069-40.144,51.485
			c-40.118,50.948-40.696,51.663-41.772,51.837c-3.682,0.583-12.055-3.032-22.298-9.631c-6.961-4.486-11.418-7.725-21.405-15.566
			c-15.823-12.418-24.814-20.765-30.446-28.267c-2.275-3.029-4.037-6.903-3.75-8.245c0.143-0.656,11.983-15.847,40.701-52.217
			l40.506-51.289l0.35,1.343c1.991,7.692,15.527,21.532,37.377,38.223c17.571,13.42,29.413,20.362,37.408,21.929
			C-69.742,422.861-68.175,423.038-67.883,422.943L-67.883,422.943z"/>
	</g>
</g>
<polyline id="polyline3389" fill="none" stroke="#000000" stroke-width="6" stroke-linecap="square" points="54.359,164.502 
	54.099,84.557 85.819,84.557 85.586,164.502 100.193,164.502 100.193,84.15 116.424,84.15 116.424,164.296 129.643,164.196 
	129.742,83.947 141.005,83.947 141.469,164.502 "/>
</svg>
